<?xml version="1.0" encoding="UTF-8"?>
<svg id="Layer_2" data-name="Layer 2" xmlns="http://www.w3.org/2000/svg" viewBox="0 0 33.989 29.029">
  <defs>
    <style>
      .cls-1 {
        fill: #1780a8;
        stroke-width: 0px;
      }
    </style>
  </defs>
  <g id="Layer_1-2" data-name="Layer 1">
    <g>
      <path class="cls-1" d="M21.143,8.894h8.894v1.976h-8.894v-1.976M30.036,4.941h-11.858v1.976h11.858v-1.976M33.989,1.976v17.788l-3.953-3.953h-13.835c-1.087,0-1.976-.879-1.976-1.976V1.976c0-1.087.889-1.976,1.976-1.976h15.811c1.087,0,1.976.879,1.976,1.976M32.013,1.976h-15.811v11.858h14.655l1.156,1.156V1.976Z"/>
      <path class="cls-1" d="M16.225,11.001H1.803c-.996,0-1.803.807-1.803,1.803v16.225l3.606-3.606h12.62c.996,0,1.803-.807,1.803-1.803v-10.817c0-.996-.807-1.803-1.803-1.803M3.606,17.31h10.817v1.803H3.606M10.817,21.818H3.606v-1.803h7.211M14.423,16.409H3.606v-1.803h10.817"/>
    </g>
  </g>
</svg>