<?xml version="1.0" encoding="UTF-8"?>
<svg id="Layer_2" data-name="Layer 2" xmlns="http://www.w3.org/2000/svg" viewBox="0 0 24.448 24.448">
  <defs>
    <style>
      .cls-1 {
        fill: #1780a8;
        stroke-width: 0px;
      }
    </style>
  </defs>
  <g id="Layer_1-2" data-name="Layer 1">
    <path class="cls-1" d="M23.089,16.977c-1.63,0-3.395-.272-4.89-.815h-.407c-.407,0-.679.136-.951.407l-2.988,2.988c-3.803-2.037-7.063-5.161-8.964-8.964l2.988-2.988c.407-.407.543-.951.272-1.358-.407-1.494-.679-3.26-.679-4.89,0-.679-.679-1.358-1.358-1.358H1.358C.679,0,0,.679,0,1.358c0,12.767,10.322,23.089,23.089,23.089.679,0,1.358-.679,1.358-1.358v-4.754c0-.679-.679-1.358-1.358-1.358M2.716,2.716h2.037c.136,1.222.407,2.445.679,3.531l-1.63,1.63c-.543-1.63-.951-3.395-1.087-5.161M21.731,21.731c-1.766-.136-3.531-.543-5.161-1.087l1.63-1.63c1.087.272,2.309.543,3.531.543v2.173Z"/>
  </g>
</svg>